# xmcd
#
# Track frame offsets:
#	150
#	30149
#	43014
#	78984
#	109022
#	141429
#	178559
#	215914
#
# Disc length: 3390 seconds
#
# Revision: 1
# Processed by: cddbd v1.5.2PL0 Copyright (c) Steve Scherf et al.
# Submitted via: audiograbber 1.83.01
#
DISCID=680d3c08
DTITLE=Grateful Dead - 77-03-19 Winterland Arena, San Francisco CA
DYEAR=1900
DGENRE=
TTITLE0=Bertha
TTITLE1=Mama Tried
TTITLE2=Loser
TTITLE3=Big River
TTITLE4=They Love Each Other
TTITLE5=Looks Like Rain
TTITLE6=Tennessee Jed
TTITLE7=Estimated Prophet
EXTD=
EXTT0=
EXTT1=
EXTT2=
EXTT3=
EXTT4=
EXTT5=
EXTT6=
EXTT7=
PLAYORDER=
